<?xml version="1.0" encoding="utf-8"?>
<!-- Uploaded to: SVG Repo, www.svgrepo.com, Generator: SVG Repo Mixer Tools -->
<svg width="800px" height="800px" viewBox="0 0 1024 1024" class="icon"  version="1.1" xmlns="http://www.w3.org/2000/svg"><path d="M41.8 63.9h83.6v720.9H41.8zM212.2 63.9h83.6v720.9h-83.6zM382.6 63.9h83.6v720.9h-83.6z" fill="#1AC0D6" /><path d="M41.8 63.9h424.4v83.6H41.8z" fill="#1AC0D6" /><path d="M41.8 514h424.4v187.7H41.8z" fill="#E02D2D" /><path d="M125.5 784.8h89.2V874h-89.2zM295.9 784.8h89.2V874h-89.2z" fill="#1AC0D6" /><path d="M209.4 874h89.2v89.2h-89.2z" fill="#E02D2D" /><path d="M560.3 63.9h83.6v720.9h-83.6zM730.7 63.9h83.6v720.9h-83.6zM901.1 63.9h83.6v720.9h-83.6z" fill="#1AC0D6" /><path d="M560.3 63.9h424.4v83.6H560.3z" fill="#1AC0D6" /><path d="M560.3 514h424.4v187.7H560.3z" fill="#35D335" /><path d="M644 784.8h89.2V874H644zM814.4 784.8h89.2V874h-89.2z" fill="#1AC0D6" /><path d="M727.9 874h89.2v89.2h-89.2z" fill="#35D335" /></svg>